:SAMPLES-PER-SECOND 30
:FRAME-RANGE 1-3358
:FULLY-SPECIFIED
:DEGREES
1365
root  -61.5387 38.1735 39.7953 176.599 -29.7097 -177.762
RightUpLeg  -13.3072 -3.18718 8.54836
RightLeg  18.1709 -25.4496 -3.10636
RightFoot  -6.47172 0.344136 -9.09221
RightToes  -5.8209e-011 0 -3.6325e-017
Spine  4.88079 -2.13282 7.90778
Spine1  -0.0980501 -1.8092 1.89628
HEad  0.0605055 -24.2152 -2.1774
LeftShoulder1  1.37461 -0.176108 -31.2999
LeftArm  9.33257 3.87521 -33.5036
LeftForeArm  11.0765 -4.57765 -16.9228
LeftHand  0.507732 -2.36603 -7.4188
RightShoulder  5.39633 5.6296 51.7493
RightArm  16.0986 -0.0166104 12.2307
RightForeArm  9.07833 -0.343408 18.3585
RightHand  0.285849 6.67211 2.39574
LeftUpLeg  -1.43121 22.2929 6.3046
LeftLeg  46.0498 -2.30514 -2.15276
LeftFoot  -1.55245 1.81064 -20.8339
LeftToes  -4.03819e-010 -8.71445e-011 8.52097e-011
1366
root  -62.0111 37.887 39.362 176.031 -28.262 -176.083
RightUpLeg  -14.1273 -2.9267 10.1405
RightLeg  21.715 -24.5188 -4.53228
RightFoot  -8.49959 0.152335 -8.42958
RightToes  -5.8209e-011 0 -3.6325e-017
Spine  5.75671 -1.92116 10.872
Spine1  -0.183747 -1.05521 1.50019
HEad  -0.968924 -24.1473 -1.02638
LeftShoulder1  1.34138 -0.0842415 -31.3288
LeftArm  8.30222 5.28757 -32.9007
LeftForeArm  11.2245 -3.32548 -17.2879
LeftHand  0.552202 -2.0504 -8.45589
RightShoulder  5.81905 6.27465 52.1072
RightArm  16.6774 0.63189 12.2582
RightForeArm  7.6575 1.50153 18.0769
RightHand  0.291588 6.63395 2.46064
LeftUpLeg  -6.83101 21.3263 8.56537
LeftLeg  54.9106 -3.4918 -4.86045
LeftFoot  4.45309 2.69691 -19.4753
LeftToes  -4.03819e-010 -8.71445e-011 8.52097e-011
1367
root  -62.5026 37.8152 38.9115 176.082 -26.475 -175.925
RightUpLeg  -13.9878 -3.2857 10.4865
RightLeg  23.515 -22.2578 -5.13611
RightFoot  -9.9023 0.0278394 -7.51769
RightToes  -5.8209e-011 0 -3.6325e-017
Spine  6.52191 -1.69792 11.7659
Spine1  -0.212963 -0.53965 1.18111
HEad  -2.08628 -23.6294 -0.224122
LeftShoulder1  1.30187 0.0247679 -31.3632
LeftArm  6.89879 7.10918 -32.1917
LeftForeArm  11.1136 -2.47587 -17.4513
LeftHand  0.523785 -1.71194 -8.42924
RightShoulder  6.6336 7.5732 52.4208
RightArm  17.3015 1.76648 12.463
RightForeArm  7.58418 2.59671 17.8337
RightHand  0.281198 6.69569 2.34527
LeftUpLeg  -11.0823 20.304 9.20811
LeftLeg  60.5687 -2.68859 -4.60505
LeftFoot  2.90978 2.26012 -18.0925
LeftToes  -4.03819e-010 -8.71445e-011 8.52097e-011
1368
root  -63.008 37.9093 38.4647 176.577 -24.4865 -176.529
RightUpLeg  -13.2746 -3.38397 9.97409
RightLeg  23.8124 -20.0729 -5.0482
RightFoot  -10.5336 -0.0221351 -6.92655
RightToes  -5.8209e-011 0 -3.6325e-017
Spine  6.87534 -1.42165 11.786
Spine1  -0.112201 -0.142392 0.714155
HEad  -2.92163 -22.8081 0.357439
LeftShoulder1  1.2855 0.0714545 -31.3948
LeftArm  5.33367 8.87251 -31.5743
LeftForeArm  11.2421 -1.51423 -17.5769
LeftHand  0.477154 -1.57756 -7.8296
RightShoulder  7.28879 8.65604 52.463
RightArm  16.9661 3.05854 13.1251
RightForeArm  8.17584 3.57196 17.443
RightHand  0.261862 6.61465 2.17899
LeftUpLeg  -14.6194 19.0923 9.02706
LeftLeg  62.6873 -1.79636 -3.19065
LeftFoot  1.36332 1.74409 -15.6605
LeftToes  -4.03819e-010 -8.71445e-011 8.52097e-011
1369
root  -63.525 38.1227 38.0297 177.183 -22.2457 -177.449
RightUpLeg  -12.0061 -3.25327 8.89762
RightLeg  22.8638 -17.7357 -4.25659
RightFoot  -10.4912 -0.0243544 -6.24922
RightToes  -5.8209e-011 0 -3.6325e-017
Spine  6.94241 -1.02503 11.6645
Spine1  0.143052 0.349575 -0.177716
HEad  -3.26442 -21.8832 0.586243
LeftShoulder1  1.29201 0.0560531 -31.4168
LeftArm  4.10166 10.2502 -31.1154
LeftForeArm  11.5754 -0.822368 -17.6105
LeftHand  0.434519 -1.36273 -7.36866
RightShoulder  7.69571 9.37823 52.289
RightArm  18.9419 3.73027 14.0646
RightForeArm  5.10397 6.4913 16.5726
RightHand  0.246751 6.48978 2.06139
LeftUpLeg  -17.0545 17.2327 8.47217
LeftLeg  61.3779 -1.16908 -1.75448
LeftFoot  -0.912788 1.23218 -13.3944
LeftToes  -4.03819e-010 -8.71445e-011 8.52097e-011
1370
root  -64.0299 38.4042 37.608 177.926 -19.5909 -178.61
RightUpLeg  -10.4375 -3.19977 7.40582
RightLeg  20.9268 -15.0485 -2.9479
RightFoot  -10.023 0.00138627 -5.99139
RightToes  -5.8209e-011 0 -3.6325e-017
Spine  7.06315 -0.50684 11.337
Spine1  0.0638947 0.956666 -1.43765
HEad  -3.21543 -20.7265 0.512798
LeftShoulder1  1.25827 0.142157 -31.3715
LeftArm  3.18626 11.4854 -30.6872
LeftForeArm  12.1011 -0.732444 -17.513
LeftHand  0.447533 -1.38973 -7.55935
RightShoulder  7.90394 9.75534 52.1782
RightArm  25.2743 3.69573 15.0699
RightForeArm  -2.28069 11.6618 14.4194
RightHand  0.292583 6.5417 2.49431
LeftUpLeg  -18.3132 14.9323 7.56793
LeftLeg  56.4434 -0.010597 0.481819
LeftFoot  -2.53921 0.92026 -11.7286
LeftToes  -4.03819e-010 -8.71445e-011 8.52097e-011
1371
root  -64.4958 38.722 37.2267 178.717 -16.5452 -179.806
RightUpLeg  -8.82308 -2.99037 5.9543
RightLeg  18.3092 -12.5208 -1.85369
RightFoot  -9.11618 0.055257 -6.00477
RightToes  -5.8209e-011 0 -3.6325e-017
Spine  7.16968 0.0612059 10.7404
Spine1  0.0153758 1.58024 -2.79319
HEad  -3.31814 -19.1915 0.338627
LeftShoulder1  1.20006 0.296258 -31.3524
LeftArm  2.98163 12.5835 -30.3774
LeftForeArm  11.8532 -1.43946 -17.3398
LeftHand  0.483695 -1.50205 -8.03334
RightShoulder  8.09075 10.0679 52.1799
RightArm  33.2009 3.51148 15.9499
RightForeArm  -10.4803 16.9584 10.8568
RightHand  0.296435 6.41759 2.56507
LeftUpLeg  -18.2366 11.989 6.6516
LeftLeg  48.3857 1.38625 2.09232
LeftFoot  -3.42071 0.743867 -10.4281
LeftToes  -4.03819e-010 -8.71445e-011 8.52097e-011
1372
root  -64.928 39.0281 36.9065 179.777 -12.8667 179.049
RightUpLeg  -7.82523 -2.66398 4.61099
RightLeg  15.7294 -9.02354 -0.98808
RightFoot  -7.96902 0.124863 -6.05987
RightToes  -5.8209e-011 0 -3.6325e-017
Spine  6.98887 0.826889 9.91718
Spine1  0.00405609 2.35374 -4.04298
HEad  -3.189 -17.2008 0.00322479
LeftShoulder1  1.17136 0.377947 -31.4111
LeftArm  3.01884 13.4659 -30.145
LeftForeArm  11.5661 -2.1688 -17.1669
LeftHand  0.51587 -1.68776 -8.33087
RightShoulder  8.24915 10.337 52.1663
RightArm  38.87 3.28459 16.5674
RightForeArm  -15.6138 21.1347 7.20633
RightHand  0.330759 6.61891 2.84207
LeftUpLeg  -17.0945 9.05457 5.79016
LeftLeg  37.6001 1.97931 1.99583
LeftFoot  -4.148 0.644866 -9.8471
LeftToes  -4.03819e-010 -8.71445e-011 8.52097e-011
1373
root  -65.3675 39.2984 36.5544 -179.847 -9.5863 178.29
RightUpLeg  -5.9421 -2.81097 3.36787
RightLeg  12.6069 -5.93023 -0.139698
RightFoot  -6.90302 0.185437 -5.97917
RightToes  -5.8209e-011 0 -3.6325e-017
Spine  6.704 1.16664 9.15926
Spine1  0.502811 2.76302 -5.07487
HEad  -2.46318 -14.6876 -0.572133
LeftShoulder1  1.14386 0.450937 -31.4052
LeftArm  3.0811 14.1156 -30.0956
LeftForeArm  11.3398 -2.67807 -17.0388
LeftHand  0.506289 -1.65182 -8.2193
RightShoulder  8.48537 10.7193 52.2144
RightArm  39.4392 3.1037 16.9207
RightForeArm  -15.2377 23.8467 5.84041
RightHand  0.340319 6.58708 2.94371
LeftUpLeg  -14.2779 5.45207 5.37165
LeftLeg  25.4636 0.559582 0.619596
LeftFoot  -4.44193 0.650078 -10.3227
LeftToes  -4.03819e-010 -8.71445e-011 8.52097e-011
1374
root  -65.812 39.4486 36.2337 -179.699 -6.11749 178.09
RightUpLeg  -4.46368 -2.43043 2.89884
RightLeg  10.2498 -2.98126 -0.142072
RightFoot  -6.27592 0.196995 -5.40503
RightToes  -5.8209e-011 0 -3.6325e-017
Spine  6.45062 1.57221 8.70985
Spine1  0.830478 3.19597 -5.50419
HEad  -1.12711 -11.8873 -1.54675
LeftShoulder1  1.15507 0.430341 -31.5197
LeftArm  2.8204 14.3036 -30.0541
LeftForeArm  11.5657 -2.75704 -16.9763
LeftHand  0.494849 -1.64781 -8.03592
RightShoulder  8.65877 11.0585 52.0437
RightArm  38.0499 3.07084 17.3689
RightForeArm  -13.4599 25.288 6.084
RightHand  0.389252 6.58153 3.41835
LeftUpLeg  -11.6098 4.05234 5.05591
LeftLeg  15.4425 -0.992332 0.00836009
LeftFoot  -2.75318 0.878323 -11.4495
LeftToes  -4.03819e-010 -8.71445e-011 8.52097e-011
1375
root  -66.2724 39.4918 35.8918 -179.712 -3.38644 178.74
RightUpLeg  -3.12428 -1.76086 3.24996
RightLeg  8.46357 -0.823149 -0.471473
RightFoot  -5.94912 0.17897 -4.64958
RightToes  -5.8209e-011 0 -3.6325e-017
Spine  5.57101 1.59674 8.96411
Spine1  1.60903 3.21128 -5.5503
HEad  0.384271 -8.76259 -2.11689
LeftShoulder1  1.13057 0.495986 -31.5243
LeftArm  2.56807 13.9463 -30.0262
LeftForeArm  11.7479 -2.74079 -16.9539
LeftHand  0.51207 -1.76132 -8.17623
RightShoulder  8.88317 11.4315 52.0567
RightArm  37.4638 3.0311 17.7533
RightForeArm  -13.0011 26.2446 6.28657
RightHand  0.440002 6.34728 3.99976
LeftUpLeg  -10.0459 7.30154 4.96873
LeftLeg  9.91436 -2.14438 -0.595584
LeftFoot  0.891944 1.16494 -10.8975
LeftToes  -4.03819e-010 -8.71445e-011 8.52097e-011
